#!OML:ASF E:\CV Data\Top Level 1\Subject 1\Session 1\player.ASF
:FULLY-SPECIFIED
:DEGREES
543
root -0.851489 17.8232 -4.80746 17.7988 68.2209 11.2958
lowerback 12.2753 0.625194 10.2941
upperback 3.19419 2.52562 5.06171
thorax -3.31006 1.28727 -0.830835
lowerneck -4.6911 -15.9929 -20.4081
upperneck -13.2773 -19.4393 22.4923
head 1.27455 -9.42295 8.94985
rclavicle -7.39479e-014 -7.31528e-014
rhumerus 14.0602 -10.0838 -87.4035
rradius 41.6685
rwrist -49.5731
rhand 8.26143 -6.44056
rfingers 7.12502
rthumb 33.4756 -33.3392
lclavicle -7.39479e-014 -7.31528e-014
lhumerus -15.319 -6.89493 90.0662
lradius 58.8084
lwrist 40.8135
lhand -14.8626 19.4805
lfingers 7.12502
lthumb 11.2973 49.1563
rfemur -21.8459 2.88149 15.6455
rtibia 35.8521
rfoot -17.7876 -6.66907
rtoes 4.47164
lfemur -9.76338 6.35103 -12.263
ltibia 29.858
lfoot -0.112571 7.11795
ltoes -12.2249
544
root -0.898436 17.8001 -4.81056 17.4505 67.8548 10.8197
lowerback 12.8319 0.54983 10.3848
upperback 3.34244 2.50266 4.95784
thorax -3.45103 1.27426 -0.998952
lowerneck -5.06141 -15.8732 -20.1817
upperneck -12.885 -19.2606 22.5675
head 1.40113 -9.32471 8.92342
rclavicle 1.19271e-014 -6.99722e-014
rhumerus 12.9842 -7.20864 -88.9292
rradius 40.9611
rwrist -48.4497
rhand 6.89002 -5.82406
rfingers 7.12502
rthumb 32.171 -32.9956
lclavicle 1.19271e-014 -6.99722e-014
lhumerus -13.174 -8.22651 91.3682
lradius 59.1187
lwrist 42.7644
lhand -13.1701 19.7314
lfingers 7.12502
lthumb 12.9292 49.3108
rfemur -22.4685 2.93421 15.7992
rtibia 36.3455
rfoot -17.8634 -6.38133
rtoes 4.53769
lfemur -10.4065 6.74723 -12.0666
ltibia 30.7714
lfoot -0.344069 6.84403
ltoes -12.8649
545
root -0.942889 17.7742 -4.81311 17.0546 67.483 10.1734
lowerback 13.3541 0.488842 10.483
upperback 3.42632 2.5002 4.85677
thorax -3.63872 1.26676 -1.17114
lowerneck -5.50443 -15.7868 -19.9778
upperneck -12.3595 -19.1334 22.693
head 1.59656 -9.24588 8.89564
rclavicle 2.78299e-014 6.67916e-014
rhumerus 11.9374 -4.25955 -90.498
rradius 40.2022
rwrist -47.4222
rhand 5.47136 -5.14675
rfingers 7.12502
rthumb 30.8195 -32.5825
lclavicle 2.78299e-014 6.67916e-014
lhumerus -11.4887 -9.32033 92.545
lradius 59.72
lwrist 44.6487
lhand -11.3591 20.0009
lfingers 7.12502
lthumb 14.6745 49.4616
rfemur -23.1964 3.02877 16.0112
rtibia 36.8251
rfoot -17.9542 -6.0805
rtoes 4.66741
lfemur -11.1585 7.23052 -11.8089
ltibia 31.7083
lfoot -0.634985 6.56778
ltoes -13.5139
546
root -0.98351 17.7463 -4.81465 16.6502 67.0665 9.40472
lowerback 13.8162 0.455821 10.5768
upperback 3.45467 2.52904 4.75513
thorax -3.84923 1.27097 -1.3459
lowerneck -5.97145 -15.7353 -19.8397
upperneck -11.7256 -19.0668 22.8746
head 1.85269 -9.19135 8.87878
rclavicle 5.08889e-014 -2.22639e-014
rhumerus 10.9124 -1.35027 -92.1369
rradius 39.4405
rwrist -46.3218
rhand 4.06547 -4.49574
rfingers 7.12502
rthumb 29.4782 -32.1762
lclavicle 5.08889e-014 -2.22639e-014
lhumerus -10.2993 -10.2922 93.6215
lradius 60.6306
lwrist 46.4743
lhand -10.1406 20.709
lfingers 7.12502
lthumb 15.8482 50.0804
rfemur -24.0239 3.17089 16.2592
rtibia 37.2892
rfoot -18.0506 -5.75498
rtoes 4.78807
lfemur -11.9837 7.82611 -11.5202
ltibia 32.6356
lfoot -0.966675 6.30841
ltoes -14.1337
547
root -1.01869 17.7176 -4.81024 16.2417 66.5847 8.58494
lowerback 14.2057 0.455665 10.591
upperback 3.46854 2.58053 4.67103
thorax -4.03735 1.28677 -1.46097
lowerneck -6.42811 -15.7077 -19.7684
upperneck -11.0401 -19.0452 23.071
head 2.13913 -9.15457 8.86907
rclavicle -1.19271e-014 1.27222e-014
rhumerus 9.90338 1.45333 -93.8609
rradius 38.718
rwrist -45.0141
rhand 2.21417 -3.71408
rfingers 7.12502
rthumb 27.7094 -31.6925
lclavicle -1.19271e-014 1.27222e-014
lhumerus -9.57891 -11.1426 94.5755
lradius 61.7505
lwrist 48.1323
lhand -11.1912 22.022
lfingers 7.12502
lthumb 14.8363 51.4709
rfemur -24.8609 3.40841 16.5338
rtibia 37.7359
rfoot -18.1618 -5.45105
rtoes 4.8843
lfemur -12.7663 8.56463 -11.2047
ltibia 33.5085
lfoot -1.3295 6.03203
ltoes -14.7109
